PathFileType	4	(X/Y/Z)	C:\Github\BTS_project\Data\sports2d_results\Single_Hop4 Exam_2026-03-06_123833_tvc2_Sports2D\Single_Hop4 Exam_2026-03-06_123833_tvc2_Sports2D_px_person00.trc
DataRate	CameraRate	NumFrames	NumMarkers	Units	OrigDataRate	OrigDataStartFrame	OrigNumFrames
30.0	30.0	11	22	m	30.0	173	278
Frame#	Time	Hip			RHip			RKnee			RAnkle			RBigToe			RSmallToe			RHeel			LHip			LKnee			LAnkle			LBigToe			LSmallToe			LHeel			Neck			Head			Nose			RShoulder			RElbow			RWrist			LShoulder			LElbow			LWrist			
		X1	Y1	Z1	X2	Y2	Z2	X3	Y3	Z3	X4	Y4	Z4	X5	Y5	Z5	X6	Y6	Z6	X7	Y7	Z7	X8	Y8	Z8	X9	Y9	Z9	X10	Y10	Z10	X11	Y11	Z11	X12	Y12	Z12	X13	Y13	Z13	X14	Y14	Z14	X15	Y15	Z15	X16	Y16	Z16	X17	Y17	Z17	X18	Y18	Z18	X19	Y19	Z19	X20	Y20	Z20	X21	Y21	Z21	X22	Y22	Z22
173	5.787484957882071	443.4634302993251	731.0682377277979	0.0	402.37820783203205	725.2938188785547	0.0	383.4056015482791	856.7435272512396	0.0	410.5966304586201	870.6419214729054	0.0	404.3933065574707	923.775389057297	0.0	384.4631852950719	913.3364070513946	0.0	423.47686702103437	862.7690636719117	0.0	480.69954206050863	737.6219136719241	0.0	470.51550090679933	865.6498826025107	0.0	450.1958273836969	999.4722670349656	0.0	441.3132527278252	1046.78543500641	0.0	464.8048380311134	1043.8413341056494	0.0	445.0095197036589	1009.7518146940602	0.0	475.4264488482953	571.233969638706	0.0	498.4544398252457	478.7211075536828	0.0	491.06312718612094	549.9857368770674	0.0	399.5005223397762	564.8474669277073	0.0	333.0518576665344	599.143996246778	0.0	361.21763340861213	677.7412520482168	0.0	547.9098303179569	582.449787114456	0.0	604.024735333118	636.53377756329	0.0	539.4013656563603	692.7830343856726	0.0
174	5.820938628158846	444.1688338203519	732.1998776775654	0.0	403.1637082072489	726.1068873458312	0.0	386.456454863205	855.6512100886043	0.0	411.856953143646	881.2041204452175	0.0	404.14905084167447	933.7648812039647	0.0	383.61071076596187	922.2517254933737	0.0	423.1297621830136	876.0727241502625	0.0	481.3558384882865	737.0617826795942	0.0	470.5034564486169	861.2819608206812	0.0	451.08997932937376	996.2786349587664	0.0	439.9975705087997	1045.4910140138913	0.0	463.67550536760206	1042.9717863929593	0.0	445.21799179781874	1005.4964453016329	0.0	474.54759040977245	582.8889161070272	0.0	498.67643636325505	490.72865730413486	0.0	491.4199044855255	564.0248497176568	0.0	399.52089360075774	574.5211873602614	0.0	330.7812315802941	605.0536740904123	0.0	361.537196644035	682.5470785332841	0.0	547.6846758907751	591.7738908812871	0.0	604.8764668256024	642.2232304147344	0.0	536.7362639672926	696.444581771465	0.0
175	5.854392298435621	444.4376139708503	732.5541152737977	0.0	403.7923024229884	727.280404115427	0.0	387.551869716051	855.6471135312921	0.0	413.5287525278529	886.6946634828823	0.0	405.40727573898414	939.1695506901972	0.0	385.7333929561829	927.4237409719431	0.0	424.6517839521665	883.8981642786493	0.0	481.65633524445263	736.6934873319807	0.0	470.9787339036038	861.2180209006277	0.0	452.1113444900457	993.7413574392376	0.0	440.0206030299537	1044.8245027794933	0.0	463.4685370277966	1041.6960725288343	0.0	445.60761596083927	1003.1704270531376	0.0	474.31153664232465	591.3196951346848	0.0	499.57285830971506	499.80995102752445	0.0	491.6305554952783	575.3696024855035	0.0	399.2233419738039	581.7235806534784	0.0	329.00991507837625	609.8360017968008	0.0	361.8674710076655	685.9723381418416	0.0	548.0188466019044	597.9695969527194	0.0	605.5042690197537	645.1426262861994	0.0	536.1422541113724	698.3466183229034	0.0
176	5.887845968712396	444.60226012244925	734.4057404117711	0.0	403.9691667258211	729.4229253155847	0.0	386.67083942002586	857.6380222034616	0.0	415.1806718779097	888.9741039209863	0.0	406.80861987907366	942.6161051471328	0.0	388.52016696345464	931.037681066354	0.0	427.0326327720751	887.106509165003	0.0	481.9626266955224	738.3960316651012	0.0	472.53922672950284	864.292647974241	0.0	453.0169220114194	992.4648535624974	0.0	440.5656426821942	1042.9075798000576	0.0	463.28562754019515	1039.3182138661919	0.0	446.57472980271604	1001.7716428256708	0.0	474.6135677268644	598.9826527431849	0.0	501.87567192200765	506.32696959516875	0.0	492.22702449569255	584.1251414768378	0.0	399.6572479324187	587.0695469908903	0.0	328.31074756968826	613.6666485687858	0.0	361.86445246314105	688.4911312924274	0.0	548.2068676605276	602.3182048789349	0.0	604.7641395628292	647.2011858013334	0.0	536.2774783158068	699.5415547240171	0.0
177	5.92129963898917	444.8169107835819	737.411198909306	0.0	404.1361336214441	732.468027424479	0.0	384.4486167891858	860.0147666459266	0.0	416.5127656336547	889.9313718708072	0.0	408.5235975182728	944.1074494368968	0.0	391.13386348339486	933.0018016066482	0.0	428.6492733420897	887.8365803399985	0.0	482.29677875583934	741.8150661868556	0.0	474.5341839684829	867.2623027094946	0.0	454.0836830396688	992.3170568592319	0.0	439.99380439617244	1040.5756950853256	0.0	462.47954100149667	1037.4738503263854	0.0	448.69072288136397	1000.1374453137818	0.0	475.33570966976345	603.8120668258215	0.0	504.2213879289415	511.94839194425435	0.0	493.2209994987742	590.8595746238221	0.0	400.95337402794075	590.8678808826357	0.0	328.33891073952844	615.7498535267879	0.0	361.7808008981772	690.5989391116335	0.0	548.2985793259876	605.8693253368014	0.0	602.8000660589418	648.9767078537092	0.0	536.2051300405589	700.8932278430024	0.0
178	5.9547533092659455	444.96625000582213	740.1183440726668	0.0	404.52836288361857	735.5351683152936	0.0	382.3225742226157	862.4405792418444	0.0	417.0963048246321	889.9104591591497	0.0	410.2360017637149	943.6531024888932	0.0	393.1488598499625	933.1418930274965	0.0	429.411003441651	887.0413689738008	0.0	482.5287639635944	745.074901749642	0.0	475.547882642304	868.5381648126654	0.0	455.373200902509	992.3446547204076	0.0	438.33195766593485	1039.737624838766	0.0	461.73559873387325	1036.8315270564672	0.0	451.3670479433878	999.3496869135184	0.0	476.2414210279594	606.0724416595925	0.0	505.43153888783513	516.0825208411842	0.0	493.95731227074174	595.514225522872	0.0	402.27893108961337	594.2693103563004	0.0	328.4687943965547	616.9257010098444	0.0	362.08586770897057	693.3802485736556	0.0	549.2820568853613	609.6130554699635	0.0	601.1610466541017	650.4559743207483	0.0	535.9120144565264	703.0815167356701	0.0
179	5.988206979542721	445.03320161638777	742.239155081189	0.0	404.63940745052423	737.6985181364698	0.0	381.4925792798837	865.3705739158527	0.0	416.73587118458454	888.6227274084713	0.0	411.38091919300115	942.2809392503023	0.0	394.0301924076608	932.1465686654725	0.0	429.62455020989796	884.6053250261303	0.0	482.652323099491	747.0194925061176	0.0	475.27521366344206	868.7204124895541	0.0	456.4646836247307	992.3199373219735	0.0	437.11032454753786	1040.0096600223885	0.0	461.7111353199255	1036.1570401247534	0.0	453.060281343552	1000.441221492847	0.0	476.9234273443227	609.834394011	0.0	506.28708784993916	517.7958990278581	0.0	494.02830854291176	598.1687647959855	0.0	403.21668826879716	597.7888654203148	0.0	328.3085335523524	619.015963884588	0.0	362.8945667975791	696.7842887833699	0.0	551.4631602597585	613.5644279465416	0.0	601.0157677213095	651.913026852082	0.0	535.655736414749	706.5974783052535	0.0
180	6.021660649819496	445.0159842643355	744.4955408434433	0.0	404.2141225293232	739.157470775481	0.0	382.2851019641572	868.3928258294632	0.0	415.77884773873086	886.2808259812659	0.0	412.38276440672064	939.7698508636656	0.0	394.06979605430365	930.1600704003289	0.0	428.8355813505543	880.9098184312513	0.0	482.6903216584624	748.432790757531	0.0	474.55585445797124	869.2597342549815	0.0	456.8960536915027	992.981193952513	0.0	437.05831203734715	1039.6564807426375	0.0	461.9996523434676	1035.0920788041326	0.0	452.87305112668935	1001.9459188470421	0.0	477.2351084136044	615.5847698063001	0.0	507.38102453354804	519.024100594595	0.0	493.86468370712964	600.0453594933084	0.0	403.83288239048557	600.7043114198761	0.0	327.8569818504349	621.9591532911122	0.0	363.3655728128522	699.3053076511111	0.0	553.4493735780908	617.1162940511211	0.0	601.9860281972494	654.1855649195734	0.0	535.6736198326969	710.9892387515886	0.0
181	6.055114320096271	444.9565952416954	747.2766951279273	0.0	403.7882993726316	740.712019175967	0.0	384.0596115571061	871.2775477014555	0.0	414.8127890072812	883.6394794233971	0.0	413.68007239422076	935.6675498494185	0.0	393.94892657664997	926.9390658261035	0.0	427.42828778739226	876.9982266760737	0.0	482.7997147240228	750.4936155999654	0.0	474.0660204458831	871.092998825836	0.0	456.41447487143796	994.7237717054221	0.0	437.4082939115522	1039.1410846457911	0.0	462.0712455483478	1035.0945446931557	0.0	451.26423987649974	1002.5325152542873	0.0	477.14593109333214	620.4861532125836	0.0	508.19145822745304	521.8335373866819	0.0	494.10406463018353	602.4919926544335	0.0	404.2537492882996	602.5793272712654	0.0	327.65178353401353	624.0234280235768	0.0	362.6562787439301	700.2197826073273	0.0	553.9493897784815	619.893707915489	0.0	603.085440748039	657.4620206630127	0.0	536.1373015830761	714.8058055227858	0.0
182	6.088567990373045	445.15955698873375	750.1019924011285	0.0	403.9263392992642	742.7673315903409	0.0	385.5908920306768	874.8295811134348	0.0	414.1707298357564	881.6256831970495	0.0	414.8413449086026	931.7891685464424	0.0	393.82471610966985	923.6674642234577	0.0	427.28385342910894	874.1307465196364	0.0	483.160084824569	753.0886789014984	0.0	474.0168522255404	874.0254747635815	0.0	455.1272470768555	996.8798319664302	0.0	437.4297043019168	1040.1371637618195	0.0	462.19415559594233	1036.8434712236951	0.0	449.2716540356862	1003.4981900582491	0.0	476.6564117410677	623.7372325304874	0.0	508.5037375938244	525.2043847175527	0.0	494.6797915701733	605.5591908174945	0.0	404.4286676303419	604.2407795788855	0.0	328.10322548120206	625.0278534563035	0.0	361.49357559787916	701.0110198203438	0.0	553.8539633286707	622.1133548258867	0.0	603.8170197078805	660.512688944161	0.0	536.9876430863593	716.8178973411636	0.0
183	6.12202166064982	445.7722091223203	752.1856570028879	0.0	404.56639379013615	745.0641172266332	0.0	386.2902716217742	879.0851641778927	0.0	413.36174927660784	881.066372172018	0.0	415.2105191933308	930.021711427263	0.0	393.2971767872614	922.0461435377695	0.0	428.39163285708497	873.445044574396	0.0	483.6572836243822	755.3693841520831	0.0	474.5110081097623	876.9379820674726	0.0	453.7303721162869	998.3942492585591	0.0	437.40977520091377	1042.1277106753744	0.0	462.8843301390798	1039.4765740384066	0.0	447.79963359272904	1005.7713494056718	0.0	476.3501841275654	625.9643324484823	0.0	508.62725675861185	527.3603479161438	0.0	495.07238417432836	608.6566923676164	0.0	404.087015968699	606.5941101858615	0.0	328.88729370788735	626.3970235148988	0.0	361.17703039745936	702.9615379807105	0.0	554.78228099534	624.4453583940415	0.0	604.1738461637393	662.2597828018777	0.0	538.0832401524788	717.0540424182194	0.0
